<svg width="655" height="55" viewBox="0 0 655 55" fill="none" xmlns="http://www.w3.org/2000/svg">
<g filter="url(#filter0_i)">
<path d="M43.2812 36.668C43.1172 40.2305 42.1562 43.3828 40.3984 46.125C38.6406 48.8438 36.168 50.9531 32.9805 52.4531C29.8164 53.9531 26.1953 54.7031 22.1172 54.7031C15.3906 54.7031 10.0938 52.5117 6.22656 48.1289C2.35938 43.7461 0.425781 37.5586 0.425781 29.5664V27.0352C0.425781 22.0195 1.29297 17.6367 3.02734 13.8867C4.78516 10.1133 7.30469 7.20703 10.5859 5.16797C13.8672 3.10547 17.6641 2.07422 21.9766 2.07422C28.1875 2.07422 33.1797 3.71484 36.9531 6.99609C40.7266 10.2539 42.8711 14.7539 43.3867 20.4961H31.082C30.9883 17.3789 30.2031 15.1406 28.7266 13.7812C27.25 12.4219 25 11.7422 21.9766 11.7422C18.9062 11.7422 16.6562 12.8906 15.2266 15.1875C13.7969 17.4844 13.0469 21.1523 12.9766 26.1914V29.8125C12.9766 35.2734 13.6562 39.1758 15.0156 41.5195C16.3984 43.8633 18.7656 45.0352 22.1172 45.0352C24.9531 45.0352 27.1211 44.3672 28.6211 43.0312C30.1211 41.6953 30.918 39.5742 31.0117 36.668H43.2812ZM78.4305 49.8867C75.9227 53.0977 72.5359 54.7031 68.2703 54.7031C64.0984 54.7031 60.9344 53.4961 58.7781 51.082C56.6453 48.6445 55.5789 45.1523 55.5789 40.6055V15.9609H67.4266V40.6758C67.4266 43.9336 69.0086 45.5625 72.1727 45.5625C74.8914 45.5625 76.825 44.5898 77.9734 42.6445V15.9609H89.8914V54H78.782L78.4305 49.8867ZM126.623 26.6836L122.72 26.4023C118.994 26.4023 116.603 27.5742 115.548 29.918V54H103.701V15.9609H114.81L115.197 20.8477C117.189 17.1211 119.966 15.2578 123.529 15.2578C124.795 15.2578 125.896 15.3984 126.834 15.6797L126.623 26.6836ZM161.104 26.6836L157.202 26.4023C153.475 26.4023 151.084 27.5742 150.03 29.918V54H138.182V15.9609H149.291L149.678 20.8477C151.67 17.1211 154.448 15.2578 158.01 15.2578C159.276 15.2578 160.377 15.3984 161.315 15.6797L161.104 26.6836ZM185.073 54H173.191V15.9609H185.073V54ZM172.488 6.15234C172.488 4.46484 173.097 3.08203 174.316 2.00391C175.534 0.925781 177.116 0.386719 179.062 0.386719C181.007 0.386719 182.589 0.925781 183.808 2.00391C185.027 3.08203 185.636 4.46484 185.636 6.15234C185.636 7.83984 185.027 9.22266 183.808 10.3008C182.589 11.3789 181.007 11.918 179.062 11.918C177.116 11.918 175.534 11.3789 174.316 10.3008C173.097 9.22266 172.488 7.83984 172.488 6.15234ZM215.688 45.5625C217.352 45.5625 218.641 45.1172 219.555 44.2266C220.469 43.3125 220.914 42.0469 220.891 40.4297H232C232 44.6016 230.5 48.0234 227.5 50.6953C224.523 53.3672 220.68 54.7031 215.969 54.7031C210.438 54.7031 206.078 52.9688 202.891 49.5C199.703 46.0312 198.109 41.2266 198.109 35.0859V34.5938C198.109 30.75 198.812 27.3633 200.219 24.4336C201.648 21.4805 203.699 19.2188 206.371 17.6484C209.043 16.0547 212.207 15.2578 215.863 15.2578C220.809 15.2578 224.734 16.6289 227.641 19.3711C230.547 22.1133 232 25.8281 232 30.5156H220.891C220.891 28.5469 220.41 27.0352 219.449 25.9805C218.488 24.9258 217.199 24.3984 215.582 24.3984C212.512 24.3984 210.719 26.3555 210.203 30.2695C210.039 31.5117 209.957 33.2227 209.957 35.4023C209.957 39.2227 210.414 41.8711 211.328 43.3477C212.242 44.8242 213.695 45.5625 215.688 45.5625ZM266.868 49.8867C264.36 53.0977 260.973 54.7031 256.708 54.7031C252.536 54.7031 249.372 53.4961 247.216 51.082C245.083 48.6445 244.016 45.1523 244.016 40.6055V15.9609H255.864V40.6758C255.864 43.9336 257.446 45.5625 260.61 45.5625C263.329 45.5625 265.262 44.5898 266.411 42.6445V15.9609H278.329V54H267.22L266.868 49.8867ZM304.548 54H292.666V0H304.548V54ZM341.737 49.8867C339.229 53.0977 335.842 54.7031 331.577 54.7031C327.405 54.7031 324.241 53.4961 322.084 51.082C319.952 48.6445 318.885 45.1523 318.885 40.6055V15.9609H330.733V40.6758C330.733 43.9336 332.315 45.5625 335.479 45.5625C338.198 45.5625 340.131 44.5898 341.28 42.6445V15.9609H353.198V54H342.088L341.737 49.8867ZM378.116 15.9609L378.503 20.4258C381.198 16.9805 384.82 15.2578 389.366 15.2578C394.171 15.2578 397.417 17.168 399.105 20.9883C401.683 17.168 405.409 15.2578 410.284 15.2578C417.995 15.2578 421.956 19.9219 422.167 29.25V54H410.284V29.9883C410.284 28.043 409.956 26.625 409.3 25.7344C408.644 24.8438 407.448 24.3984 405.714 24.3984C403.37 24.3984 401.624 25.4414 400.476 27.5273L400.511 28.0195V54H388.628V30.0586C388.628 28.0664 388.312 26.625 387.679 25.7344C387.046 24.8438 385.839 24.3984 384.058 24.3984C381.784 24.3984 380.05 25.4414 378.855 27.5273V54H367.007V15.9609H378.116ZM481.673 40.0781L491.868 2.8125H505.649L488.423 54H474.923L457.837 2.8125H471.513L481.673 40.0781ZM528.564 54H516.681V15.9609H528.564V54ZM515.978 6.15234C515.978 4.46484 516.588 3.08203 517.806 2.00391C519.025 0.925781 520.607 0.386719 522.552 0.386719C524.498 0.386719 526.08 0.925781 527.298 2.00391C528.517 3.08203 529.127 4.46484 529.127 6.15234C529.127 7.83984 528.517 9.22266 527.298 10.3008C526.08 11.3789 524.498 11.918 522.552 11.918C520.607 11.918 519.025 11.3789 517.806 10.3008C516.588 9.22266 515.978 7.83984 515.978 6.15234ZM556.893 6.50391V15.9609H563.151V24.1875H556.893V41.5898C556.893 43.0195 557.151 44.0156 557.666 44.5781C558.182 45.1406 559.202 45.4219 560.725 45.4219C561.897 45.4219 562.881 45.3516 563.678 45.2109V53.6836C561.545 54.3633 559.319 54.7031 556.998 54.7031C552.92 54.7031 549.909 53.7422 547.963 51.8203C546.018 49.8984 545.045 46.9805 545.045 43.0664V24.1875H540.194V15.9609H545.045V6.50391H556.893ZM596.472 54C596.05 53.2266 595.675 52.0898 595.347 50.5898C593.167 53.332 590.12 54.7031 586.206 54.7031C582.62 54.7031 579.573 53.625 577.066 51.4688C574.558 49.2891 573.304 46.5586 573.304 43.2773C573.304 39.1523 574.827 36.0352 577.874 33.9258C580.921 31.8164 585.351 30.7617 591.163 30.7617H594.82V28.7578C594.82 25.2656 593.308 23.5195 590.284 23.5195C587.472 23.5195 586.066 24.9023 586.066 27.668H574.218C574.218 23.9883 575.777 21 578.894 18.7031C582.034 16.4063 586.03 15.2578 590.882 15.2578C595.734 15.2578 599.566 16.4414 602.378 18.8086C605.191 21.1758 606.632 24.4219 606.702 28.5469V45.3867C606.749 48.8789 607.288 51.5508 608.32 53.4023V54H596.472ZM589.054 46.2656C590.53 46.2656 591.749 45.9492 592.71 45.3164C593.695 44.6836 594.398 43.9688 594.82 43.1719V37.0898H591.374C587.249 37.0898 585.187 38.9414 585.187 42.6445C585.187 43.7227 585.55 44.6016 586.277 45.2812C587.003 45.9375 587.929 46.2656 589.054 46.2656ZM638.898 54.7031C633.062 54.7031 628.34 52.9688 624.73 49.5C621.121 46.0078 619.316 41.4727 619.316 35.8945V34.9102C619.316 31.0195 620.031 27.5859 621.461 24.6094C622.914 21.6328 625.023 19.3359 627.789 17.7188C630.555 16.0781 633.836 15.2578 637.633 15.2578C642.977 15.2578 647.195 16.9219 650.289 20.25C653.383 23.5547 654.93 28.1719 654.93 34.1016V38.707H631.375C631.797 40.8398 632.723 42.5156 634.152 43.7344C635.582 44.9531 637.434 45.5625 639.707 45.5625C643.457 45.5625 646.387 44.25 648.496 41.625L653.91 48.0234C652.434 50.0625 650.336 51.6914 647.617 52.9102C644.922 54.1055 642.016 54.7031 638.898 54.7031ZM637.562 24.3984C634.094 24.3984 632.031 26.6953 631.375 31.2891H643.328V30.375C643.375 28.4766 642.895 27.0117 641.887 25.9805C640.879 24.9258 639.438 24.3984 637.562 24.3984Z" fill="#F5F5F5"/>
</g>
<defs>
<filter id="filter0_i" x="0.425781" y="0" width="654.504" height="58.7031" filterUnits="userSpaceOnUse" color-interpolation-filters="sRGB">
<feFlood flood-opacity="0" result="BackgroundImageFix"/>
<feBlend mode="normal" in="SourceGraphic" in2="BackgroundImageFix" result="shape"/>
<feColorMatrix in="SourceAlpha" type="matrix" values="0 0 0 0 0 0 0 0 0 0 0 0 0 0 0 0 0 0 127 0" result="hardAlpha"/>
<feOffset dy="4"/>
<feGaussianBlur stdDeviation="2"/>
<feComposite in2="hardAlpha" operator="arithmetic" k2="-1" k3="1"/>
<feColorMatrix type="matrix" values="0 0 0 0 0 0 0 0 0 0 0 0 0 0 0 0 0 0 0.25 0"/>
<feBlend mode="normal" in2="shape" result="effect1_innerShadow"/>
</filter>
</defs>
</svg>
