<svg width="554" height="46" viewBox="0 0 554 46" fill="none" xmlns="http://www.w3.org/2000/svg">
<g filter="url(#filter0_i)">
<path d="M22.5703 28.0547H9.35156L6.58594 36H0.421875L13.3125 1.875H18.6328L31.5469 36H25.3594L22.5703 28.0547ZM11.0156 23.2734H20.9062L15.9609 9.11719L11.0156 23.2734ZM36.2906 23.1328C36.2906 19.1953 37.2125 16.0547 39.0563 13.7109C40.9156 11.3516 43.3766 10.1719 46.4391 10.1719C49.3297 10.1719 51.6031 11.1797 53.2594 13.1953L53.5172 10.6406H58.65V35.2266C58.65 38.5547 57.6109 41.1797 55.5328 43.1016C53.4703 45.0234 50.6813 45.9844 47.1656 45.9844C45.3063 45.9844 43.4859 45.5938 41.7047 44.8125C39.9391 44.0469 38.5953 43.0391 37.6734 41.7891L40.3688 38.3672C42.1188 40.4453 44.275 41.4844 46.8375 41.4844C48.7281 41.4844 50.2203 40.9688 51.3141 39.9375C52.4078 38.9219 52.9547 37.4219 52.9547 35.4375V33.7266C51.3141 35.5547 49.1266 36.4688 46.3922 36.4688C43.4234 36.4688 40.9938 35.2891 39.1031 32.9297C37.2281 30.5703 36.2906 27.3047 36.2906 23.1328ZM41.9625 23.625C41.9625 26.1719 42.4781 28.1797 43.5094 29.6484C44.5563 31.1016 46.0016 31.8281 47.8453 31.8281C50.1422 31.8281 51.8453 30.8438 52.9547 28.875V17.7188C51.8766 15.7969 50.1891 14.8359 47.8922 14.8359C46.0172 14.8359 44.5563 15.5781 43.5094 17.0625C42.4781 18.5469 41.9625 20.7344 41.9625 23.625ZM82.2844 33.5156C80.6125 35.4844 78.2375 36.4688 75.1594 36.4688C72.4094 36.4688 70.3234 35.6641 68.9016 34.0547C67.4953 32.4453 66.7922 30.1172 66.7922 27.0703V10.6406H72.4875V27C72.4875 30.2188 73.8234 31.8281 76.4953 31.8281C79.2609 31.8281 81.1281 30.8359 82.0969 28.8516V10.6406H87.7922V36H82.425L82.2844 33.5156ZM110.208 29.1094C110.208 28.0938 109.786 27.3203 108.942 26.7891C108.114 26.2578 106.731 25.7891 104.794 25.3828C102.856 24.9766 101.239 24.4609 99.9422 23.8359C97.0984 22.4609 95.6766 20.4688 95.6766 17.8594C95.6766 15.6719 96.5984 13.8438 98.4422 12.375C100.286 10.9062 102.63 10.1719 105.473 10.1719C108.505 10.1719 110.95 10.9219 112.809 12.4219C114.684 13.9219 115.622 15.8672 115.622 18.2578H109.927C109.927 17.1641 109.52 16.2578 108.708 15.5391C107.895 14.8047 106.817 14.4375 105.473 14.4375C104.223 14.4375 103.2 14.7266 102.403 15.3047C101.622 15.8828 101.231 16.6562 101.231 17.625C101.231 18.5 101.598 19.1797 102.333 19.6641C103.067 20.1484 104.552 20.6406 106.786 21.1406C109.02 21.625 110.77 22.2109 112.036 22.8984C113.317 23.5703 114.262 24.3828 114.872 25.3359C115.497 26.2891 115.809 27.4453 115.809 28.8047C115.809 31.0859 114.864 32.9375 112.973 34.3594C111.083 35.7656 108.606 36.4688 105.544 36.4688C103.466 36.4688 101.614 36.0938 99.9891 35.3438C98.3641 34.5938 97.0984 33.5625 96.1922 32.25C95.2859 30.9375 94.8328 29.5234 94.8328 28.0078H100.364C100.442 29.3516 100.95 30.3906 101.887 31.125C102.825 31.8438 104.067 32.2031 105.614 32.2031C107.114 32.2031 108.255 31.9219 109.036 31.3594C109.817 30.7812 110.208 30.0312 110.208 29.1094ZM130.327 4.47656V10.6406H134.803V14.8594H130.327V29.0156C130.327 29.9844 130.514 30.6875 130.889 31.125C131.28 31.5469 131.967 31.7578 132.952 31.7578C133.608 31.7578 134.272 31.6797 134.944 31.5234V35.9297C133.647 36.2891 132.397 36.4688 131.194 36.4688C126.819 36.4688 124.631 34.0547 124.631 29.2266V14.8594H120.459V10.6406H124.631V4.47656H130.327ZM147.703 36H142.008V10.6406H147.703V36ZM146.625 0.164062H153.117L146.625 7.26562H142.055L146.625 0.164062ZM161.869 10.6406L162.033 13.5703C163.908 11.3047 166.369 10.1719 169.416 10.1719C174.697 10.1719 177.384 13.1953 177.478 19.2422V36H171.783V19.5703C171.783 17.9609 171.431 16.7734 170.728 16.0078C170.041 15.2266 168.908 14.8359 167.33 14.8359C165.033 14.8359 163.322 15.875 162.197 17.9531V36H156.502V10.6406H161.869ZM208.294 1.875L218.137 28.0312L227.958 1.875H235.622V36H229.716V24.75L230.302 9.70312L220.223 36H215.981L205.927 9.72656L206.512 24.75V36H200.606V1.875H208.294ZM250.561 36H244.866V10.6406H250.561V36ZM244.514 4.05469C244.514 3.17969 244.788 2.45313 245.334 1.875C245.897 1.29687 246.694 1.00781 247.725 1.00781C248.756 1.00781 249.553 1.29687 250.116 1.875C250.678 2.45313 250.959 3.17969 250.959 4.05469C250.959 4.91406 250.678 5.63281 250.116 6.21094C249.553 6.77344 248.756 7.05469 247.725 7.05469C246.694 7.05469 245.897 6.77344 245.334 6.21094C244.788 5.63281 244.514 4.91406 244.514 4.05469ZM265.242 36H259.547V0H265.242V36ZM279.923 36H274.228V0H279.923V36ZM303.698 36C303.448 35.5156 303.23 34.7266 303.042 33.6328C301.23 35.5234 299.011 36.4688 296.386 36.4688C293.839 36.4688 291.761 35.7422 290.152 34.2891C288.542 32.8359 287.737 31.0391 287.737 28.8984C287.737 26.1953 288.737 24.125 290.737 22.6875C292.753 21.2344 295.628 20.5078 299.362 20.5078H302.855V18.8438C302.855 17.5312 302.487 16.4844 301.753 15.7031C301.019 14.9062 299.902 14.5078 298.402 14.5078C297.105 14.5078 296.042 14.8359 295.214 15.4922C294.386 16.1328 293.972 16.9531 293.972 17.9531H288.277C288.277 16.5625 288.737 15.2656 289.659 14.0625C290.581 12.8438 291.831 11.8906 293.409 11.2031C295.003 10.5156 296.777 10.1719 298.73 10.1719C301.698 10.1719 304.066 10.9219 305.831 12.4219C307.597 13.9062 308.503 16 308.55 18.7031V30.1406C308.55 32.4219 308.87 34.2422 309.511 35.6016V36H303.698ZM297.441 31.8984C298.566 31.8984 299.62 31.625 300.605 31.0781C301.605 30.5312 302.355 29.7969 302.855 28.875V24.0938H299.784C297.675 24.0938 296.089 24.4609 295.027 25.1953C293.964 25.9297 293.433 26.9688 293.433 28.3125C293.433 29.4062 293.792 30.2812 294.511 30.9375C295.245 31.5781 296.222 31.8984 297.441 31.8984ZM300.605 0H307.097L300.605 7.10156H296.034L300.605 0ZM322.2 10.6406L322.364 13.5703C324.239 11.3047 326.7 10.1719 329.747 10.1719C335.028 10.1719 337.716 13.1953 337.809 19.2422V36H332.114V19.5703C332.114 17.9609 331.763 16.7734 331.059 16.0078C330.372 15.2266 329.239 14.8359 327.661 14.8359C325.364 14.8359 323.653 15.875 322.528 17.9531V36H316.833V10.6406H322.2ZM374.906 1.875H380.812V25.8047C380.812 29.0703 379.789 31.6641 377.742 33.5859C375.711 35.5078 373.023 36.4688 369.68 36.4688C366.117 36.4688 363.367 35.5703 361.43 33.7734C359.492 31.9766 358.523 29.4766 358.523 26.2734H364.43C364.43 28.0859 364.875 29.4531 365.766 30.375C366.672 31.2812 367.977 31.7344 369.68 31.7344C371.273 31.7344 372.539 31.2109 373.477 30.1641C374.43 29.1016 374.906 27.6406 374.906 25.7812V1.875ZM395.517 36H389.822V10.6406H395.517V36ZM389.47 4.05469C389.47 3.17969 389.744 2.45313 390.291 1.875C390.853 1.29687 391.65 1.00781 392.681 1.00781C393.712 1.00781 394.509 1.29687 395.072 1.875C395.634 2.45313 395.916 3.17969 395.916 4.05469C395.916 4.91406 395.634 5.63281 395.072 6.21094C394.509 6.77344 393.712 7.05469 392.681 7.05469C391.65 7.05469 390.853 6.77344 390.291 6.21094C389.744 5.63281 389.47 4.91406 389.47 4.05469ZM409.495 10.6406L409.659 13.2891C411.441 11.2109 413.878 10.1719 416.972 10.1719C420.362 10.1719 422.683 11.4688 423.933 14.0625C425.777 11.4688 428.37 10.1719 431.714 10.1719C434.511 10.1719 436.589 10.9453 437.948 12.4922C439.323 14.0391 440.027 16.3203 440.058 19.3359V36H434.362V19.5C434.362 17.8906 434.011 16.7109 433.308 15.9609C432.605 15.2109 431.441 14.8359 429.816 14.8359C428.519 14.8359 427.456 15.1875 426.628 15.8906C425.816 16.5781 425.245 17.4844 424.917 18.6094L424.941 36H419.245V19.3125C419.167 16.3281 417.644 14.8359 414.675 14.8359C412.394 14.8359 410.777 15.7656 409.823 17.625V36H404.128V10.6406H409.495ZM459.473 36.4688C455.864 36.4688 452.934 35.3359 450.684 33.0703C448.45 30.7891 447.333 27.7578 447.333 23.9766V23.2734C447.333 20.7422 447.817 18.4844 448.786 16.5C449.77 14.5 451.145 12.9453 452.911 11.8359C454.677 10.7266 456.645 10.1719 458.817 10.1719C462.27 10.1719 464.934 11.2734 466.809 13.4766C468.7 15.6797 469.645 18.7969 469.645 22.8281V25.125H453.075C453.247 27.2188 453.942 28.875 455.161 30.0938C456.395 31.3125 457.942 31.9219 459.802 31.9219C462.411 31.9219 464.536 30.8672 466.177 28.7578L469.247 31.6875C468.231 33.2031 466.872 34.3828 465.169 35.2266C463.481 36.0547 461.583 36.4688 459.473 36.4688ZM458.794 14.7422C457.231 14.7422 455.966 15.2891 454.997 16.3828C454.044 17.4766 453.434 19 453.169 20.9531H464.02V20.5312C463.895 18.625 463.388 17.1875 462.497 16.2188C461.606 15.2344 460.372 14.7422 458.794 14.7422ZM460.083 0H466.575L460.083 7.10156H455.513L460.083 0ZM481.772 10.6406L481.936 13.5703C483.811 11.3047 486.272 10.1719 489.319 10.1719C494.6 10.1719 497.288 13.1953 497.381 19.2422V36H491.686V19.5703C491.686 17.9609 491.334 16.7734 490.631 16.0078C489.944 15.2266 488.811 14.8359 487.233 14.8359C484.936 14.8359 483.225 15.875 482.1 17.9531V36H476.405V10.6406H481.772ZM516.773 36.4688C513.164 36.4688 510.234 35.3359 507.984 33.0703C505.75 30.7891 504.633 27.7578 504.633 23.9766V23.2734C504.633 20.7422 505.117 18.4844 506.086 16.5C507.07 14.5 508.445 12.9453 510.211 11.8359C511.977 10.7266 513.945 10.1719 516.117 10.1719C519.57 10.1719 522.234 11.2734 524.109 13.4766C526 15.6797 526.945 18.7969 526.945 22.8281V25.125H510.375C510.547 27.2188 511.242 28.875 512.461 30.0938C513.695 31.3125 515.242 31.9219 517.102 31.9219C519.711 31.9219 521.836 30.8672 523.477 28.7578L526.547 31.6875C525.531 33.2031 524.172 34.3828 522.469 35.2266C520.781 36.0547 518.883 36.4688 516.773 36.4688ZM516.094 14.7422C514.531 14.7422 513.266 15.2891 512.297 16.3828C511.344 17.4766 510.734 19 510.469 20.9531H521.32V20.5312C521.195 18.625 520.688 17.1875 519.797 16.2188C518.906 15.2344 517.672 14.7422 516.094 14.7422ZM539.869 31.4531H553.369V36H532.791V32.2734L545.658 15.2344H533.025V10.6406H552.877V14.25L539.869 31.4531Z" fill="#D4D4D4"/>
</g>
<defs>
<filter id="filter0_i" x="0.421875" y="0" width="552.947" height="49.9844" filterUnits="userSpaceOnUse" color-interpolation-filters="sRGB">
<feFlood flood-opacity="0" result="BackgroundImageFix"/>
<feBlend mode="normal" in="SourceGraphic" in2="BackgroundImageFix" result="shape"/>
<feColorMatrix in="SourceAlpha" type="matrix" values="0 0 0 0 0 0 0 0 0 0 0 0 0 0 0 0 0 0 127 0" result="hardAlpha"/>
<feOffset dy="4"/>
<feGaussianBlur stdDeviation="2"/>
<feComposite in2="hardAlpha" operator="arithmetic" k2="-1" k3="1"/>
<feColorMatrix type="matrix" values="0 0 0 0 0 0 0 0 0 0 0 0 0 0 0 0 0 0 0.25 0"/>
<feBlend mode="normal" in2="shape" result="effect1_innerShadow"/>
</filter>
</defs>
</svg>
