<svg width="323" height="36" viewBox="0 0 323 36" fill="none" xmlns="http://www.w3.org/2000/svg">
<g filter="url(#filter0_i)">
<path d="M14.9785 21.4082C14.9785 20.2832 14.5801 19.416 13.7832 18.8066C12.998 18.1973 11.5742 17.582 9.51172 16.9609C7.44922 16.3398 5.80859 15.6484 4.58984 14.8867C2.25781 13.4219 1.0918 11.5117 1.0918 9.15625C1.0918 7.09375 1.92969 5.39453 3.60547 4.05859C5.29297 2.72266 7.47852 2.05469 10.1621 2.05469C11.9434 2.05469 13.5312 2.38281 14.9258 3.03906C16.3203 3.69531 17.416 4.63281 18.2129 5.85156C19.0098 7.05859 19.4082 8.40039 19.4082 9.87695H14.9785C14.9785 8.54102 14.5566 7.49805 13.7129 6.74805C12.8809 5.98633 11.6855 5.60547 10.127 5.60547C8.67383 5.60547 7.54297 5.91602 6.73438 6.53711C5.9375 7.1582 5.53906 8.02539 5.53906 9.13867C5.53906 10.0762 5.97266 10.8613 6.83984 11.4941C7.70703 12.1152 9.13672 12.7246 11.1289 13.3223C13.1211 13.9082 14.7207 14.582 15.9277 15.3438C17.1348 16.0938 18.0195 16.9609 18.582 17.9453C19.1445 18.918 19.4258 20.0605 19.4258 21.373C19.4258 23.5059 18.6055 25.2051 16.9648 26.4707C15.3359 27.7246 13.1211 28.3516 10.3203 28.3516C8.46875 28.3516 6.76367 28.0117 5.20508 27.332C3.6582 26.6406 2.45117 25.6914 1.58398 24.4844C0.728516 23.2773 0.300781 21.8711 0.300781 20.2656H4.74805C4.74805 21.7188 5.22852 22.8438 6.18945 23.6406C7.15039 24.4375 8.52734 24.8359 10.3203 24.8359C11.8672 24.8359 13.0273 24.5254 13.8008 23.9043C14.5859 23.2715 14.9785 22.4395 14.9785 21.4082ZM23.9152 18.3145C23.9152 16.4512 24.2844 14.7754 25.0227 13.2871C25.7609 11.7871 26.798 10.6387 28.134 9.8418C29.4699 9.0332 31.0051 8.62891 32.7395 8.62891C35.3059 8.62891 37.3859 9.45508 38.9797 11.1074C40.5852 12.7598 41.4523 14.9512 41.5812 17.6816L41.5988 18.6836C41.5988 20.5586 41.2355 22.2344 40.509 23.7109C39.7941 25.1875 38.7629 26.3301 37.4152 27.1387C36.0793 27.9473 34.5324 28.3516 32.7746 28.3516C30.091 28.3516 27.9406 27.4609 26.3234 25.6797C24.718 23.8867 23.9152 21.502 23.9152 18.5254V18.3145ZM28.1867 18.6836C28.1867 20.6406 28.591 22.1758 29.3996 23.2891C30.2082 24.3906 31.3332 24.9414 32.7746 24.9414C34.216 24.9414 35.3352 24.3789 36.132 23.2539C36.9406 22.1289 37.3449 20.4824 37.3449 18.3145C37.3449 16.3926 36.9289 14.8691 36.0969 13.7441C35.2766 12.6191 34.1574 12.0566 32.7395 12.0566C31.3449 12.0566 30.2375 12.6133 29.4172 13.7266C28.5969 14.8281 28.1867 16.4805 28.1867 18.6836ZM48.5141 28V12.1445H45.6137V8.98047H48.5141V7.24023C48.5141 5.13086 49.1 3.50195 50.2719 2.35352C51.4437 1.20508 53.0844 0.630859 55.1937 0.630859C55.9437 0.630859 56.7406 0.736328 57.5844 0.947266L57.4789 4.28711C57.0102 4.19336 56.4652 4.14648 55.8441 4.14648C53.8051 4.14648 52.7855 5.19531 52.7855 7.29297V8.98047H56.6527V12.1445H52.7855V28H48.5141ZM66.9254 4.35742V8.98047H70.2828V12.1445H66.9254V22.7617C66.9254 23.4883 67.066 24.0156 67.3473 24.3438C67.6402 24.6602 68.1559 24.8184 68.8941 24.8184C69.3863 24.8184 69.8844 24.7598 70.3883 24.6426V27.9473C69.4156 28.2168 68.4781 28.3516 67.5758 28.3516C64.2945 28.3516 62.6539 26.541 62.6539 22.9199V12.1445H59.525V8.98047H62.6539V4.35742H66.9254ZM92.0691 22.1113L95.0926 8.98047H99.2586L94.073 28H90.5574L86.4793 14.9395L82.4715 28H78.9559L73.7527 8.98047H77.9187L80.9949 21.9707L84.8973 8.98047H88.1141L92.0691 22.1113ZM115.279 28C115.092 27.6367 114.928 27.0449 114.787 26.2246C113.428 27.6426 111.764 28.3516 109.795 28.3516C107.885 28.3516 106.326 27.8066 105.119 26.7168C103.912 25.627 103.309 24.2793 103.309 22.6738C103.309 20.6465 104.059 19.0938 105.559 18.0156C107.07 16.9258 109.227 16.3809 112.027 16.3809H114.646V15.1328C114.646 14.1484 114.371 13.3633 113.82 12.7773C113.27 12.1797 112.432 11.8809 111.307 11.8809C110.334 11.8809 109.537 12.127 108.916 12.6191C108.295 13.0996 107.984 13.7148 107.984 14.4648H103.713C103.713 13.4219 104.059 12.4492 104.75 11.5469C105.441 10.6328 106.379 9.91797 107.562 9.40234C108.758 8.88672 110.088 8.62891 111.553 8.62891C113.779 8.62891 115.555 9.19141 116.879 10.3164C118.203 11.4297 118.883 13 118.918 15.0273V23.6055C118.918 25.3164 119.158 26.6816 119.639 27.7012V28H115.279ZM110.586 24.9238C111.43 24.9238 112.221 24.7188 112.959 24.3086C113.709 23.8984 114.271 23.3477 114.646 22.6562V19.0703H112.344C110.762 19.0703 109.572 19.3457 108.775 19.8965C107.979 20.4473 107.58 21.2266 107.58 22.2344C107.58 23.0547 107.85 23.7109 108.389 24.2031C108.939 24.6836 109.672 24.9238 110.586 24.9238ZM135.15 12.8828C134.587 12.7891 134.007 12.7422 133.409 12.7422C131.452 12.7422 130.134 13.4922 129.454 14.9922V28H125.183V8.98047H129.261L129.366 11.1074C130.398 9.45508 131.827 8.62891 133.655 8.62891C134.265 8.62891 134.769 8.71094 135.167 8.875L135.15 12.8828ZM147.672 28.3516C144.965 28.3516 142.768 27.502 141.08 25.8027C139.405 24.0918 138.567 21.8184 138.567 18.9824V18.4551C138.567 16.5566 138.93 14.8633 139.657 13.375C140.395 11.875 141.426 10.709 142.75 9.87695C144.075 9.04492 145.551 8.62891 147.18 8.62891C149.77 8.62891 151.768 9.45508 153.174 11.1074C154.592 12.7598 155.301 15.0977 155.301 18.1211V19.8438H142.873C143.002 21.4141 143.524 22.6562 144.438 23.5703C145.364 24.4844 146.524 24.9414 147.918 24.9414C149.875 24.9414 151.469 24.1504 152.7 22.5684L155.002 24.7656C154.241 25.9023 153.221 26.7871 151.944 27.4199C150.678 28.041 149.254 28.3516 147.672 28.3516ZM147.163 12.0566C145.991 12.0566 145.041 12.4668 144.315 13.2871C143.6 14.1074 143.143 15.25 142.944 16.7148H151.082V16.3984C150.989 14.9688 150.608 13.8906 149.94 13.1641C149.272 12.4258 148.346 12.0566 147.163 12.0566ZM186.569 16.5742H176.057V24.4492H188.345V28H171.61V2.40625H188.221V5.99219H176.057V13.0586H186.569V16.5742ZM197.316 8.98047L197.439 11.1777C198.846 9.47852 200.691 8.62891 202.977 8.62891C206.938 8.62891 208.953 10.8965 209.023 15.4316V28H204.752V15.6777C204.752 14.4707 204.488 13.5801 203.961 13.0059C203.445 12.4199 202.596 12.127 201.412 12.127C199.689 12.127 198.406 12.9062 197.562 14.4648V28H193.291V8.98047H197.316ZM214.445 18.3496C214.445 15.3965 215.136 13.041 216.519 11.2832C217.913 9.51367 219.759 8.62891 222.056 8.62891C224.224 8.62891 225.929 9.38477 227.171 10.8965L227.364 8.98047H231.214V27.4199C231.214 29.916 230.435 31.8848 228.876 33.3262C227.329 34.7676 225.238 35.4883 222.601 35.4883C221.206 35.4883 219.841 35.1953 218.505 34.6094C217.181 34.0352 216.173 33.2793 215.482 32.3418L217.503 29.7754C218.816 31.334 220.433 32.1133 222.355 32.1133C223.773 32.1133 224.892 31.7266 225.712 30.9531C226.532 30.1914 226.943 29.0664 226.943 27.5781V26.2949C225.712 27.666 224.071 28.3516 222.021 28.3516C219.794 28.3516 217.972 27.4668 216.554 25.6973C215.148 23.9277 214.445 21.4785 214.445 18.3496ZM218.698 18.7188C218.698 20.6289 219.085 22.1348 219.859 23.2363C220.644 24.3262 221.728 24.8711 223.111 24.8711C224.833 24.8711 226.111 24.1328 226.943 22.6562V14.2891C226.134 12.8477 224.868 12.127 223.146 12.127C221.739 12.127 220.644 12.6836 219.859 13.7969C219.085 14.9102 218.698 16.5508 218.698 18.7188ZM241.961 28H237.69V8.98047H241.961V28ZM237.426 4.04102C237.426 3.38477 237.631 2.83984 238.041 2.40625C238.463 1.97266 239.061 1.75586 239.834 1.75586C240.608 1.75586 241.205 1.97266 241.627 2.40625C242.049 2.83984 242.26 3.38477 242.26 4.04102C242.26 4.68555 242.049 5.22461 241.627 5.6582C241.205 6.08008 240.608 6.29102 239.834 6.29102C239.061 6.29102 238.463 6.08008 238.041 5.6582C237.631 5.22461 237.426 4.68555 237.426 4.04102ZM252.392 8.98047L252.515 11.1777C253.921 9.47852 255.767 8.62891 258.052 8.62891C262.013 8.62891 264.029 10.8965 264.099 15.4316V28H259.828V15.6777C259.828 14.4707 259.564 13.5801 259.037 13.0059C258.521 12.4199 257.671 12.127 256.488 12.127C254.765 12.127 253.482 12.9062 252.638 14.4648V28H248.367V8.98047H252.392ZM278.643 28.3516C275.936 28.3516 273.739 27.502 272.052 25.8027C270.376 24.0918 269.538 21.8184 269.538 18.9824V18.4551C269.538 16.5566 269.901 14.8633 270.628 13.375C271.366 11.875 272.397 10.709 273.721 9.87695C275.046 9.04492 276.522 8.62891 278.151 8.62891C280.741 8.62891 282.739 9.45508 284.145 11.1074C285.563 12.7598 286.272 15.0977 286.272 18.1211V19.8438H273.845C273.973 21.4141 274.495 22.6562 275.409 23.5703C276.335 24.4844 277.495 24.9414 278.889 24.9414C280.846 24.9414 282.44 24.1504 283.671 22.5684L285.973 24.7656C285.212 25.9023 284.192 26.7871 282.915 27.4199C281.649 28.041 280.225 28.3516 278.643 28.3516ZM278.134 12.0566C276.962 12.0566 276.013 12.4668 275.286 13.2871C274.571 14.1074 274.114 15.25 273.915 16.7148H282.054V16.3984C281.96 14.9688 281.579 13.8906 280.911 13.1641C280.243 12.4258 279.317 12.0566 278.134 12.0566ZM299.779 28.3516C297.072 28.3516 294.875 27.502 293.188 25.8027C291.512 24.0918 290.674 21.8184 290.674 18.9824V18.4551C290.674 16.5566 291.037 14.8633 291.764 13.375C292.502 11.875 293.533 10.709 294.857 9.87695C296.182 9.04492 297.658 8.62891 299.287 8.62891C301.877 8.62891 303.875 9.45508 305.281 11.1074C306.699 12.7598 307.408 15.0977 307.408 18.1211V19.8438H294.98C295.109 21.4141 295.631 22.6562 296.545 23.5703C297.471 24.4844 298.631 24.9414 300.025 24.9414C301.982 24.9414 303.576 24.1504 304.807 22.5684L307.109 24.7656C306.348 25.9023 305.328 26.7871 304.051 27.4199C302.785 28.041 301.361 28.3516 299.779 28.3516ZM299.27 12.0566C298.098 12.0566 297.148 12.4668 296.422 13.2871C295.707 14.1074 295.25 15.25 295.051 16.7148H303.189V16.3984C303.096 14.9688 302.715 13.8906 302.047 13.1641C301.379 12.4258 300.453 12.0566 299.27 12.0566ZM322.497 12.8828C321.935 12.7891 321.355 12.7422 320.757 12.7422C318.8 12.7422 317.482 13.4922 316.802 14.9922V28H312.53V8.98047H316.609L316.714 11.1074C317.745 9.45508 319.175 8.62891 321.003 8.62891C321.612 8.62891 322.116 8.71094 322.515 8.875L322.497 12.8828Z" fill="#D4D4D4"/>
</g>
<defs>
<filter id="filter0_i" x="0.300781" y="0.630859" width="322.214" height="38.8574" filterUnits="userSpaceOnUse" color-interpolation-filters="sRGB">
<feFlood flood-opacity="0" result="BackgroundImageFix"/>
<feBlend mode="normal" in="SourceGraphic" in2="BackgroundImageFix" result="shape"/>
<feColorMatrix in="SourceAlpha" type="matrix" values="0 0 0 0 0 0 0 0 0 0 0 0 0 0 0 0 0 0 127 0" result="hardAlpha"/>
<feOffset dy="4"/>
<feGaussianBlur stdDeviation="2"/>
<feComposite in2="hardAlpha" operator="arithmetic" k2="-1" k3="1"/>
<feColorMatrix type="matrix" values="0 0 0 0 0 0 0 0 0 0 0 0 0 0 0 0 0 0 0.25 0"/>
<feBlend mode="normal" in2="shape" result="effect1_innerShadow"/>
</filter>
</defs>
</svg>
