<svg fill="#000000" xmlns="http://www.w3.org/2000/svg"  viewBox="0 0 48 48" width="48px" height="48px"><path d="M 24 2.0195312 C 23.826 2.0195312 23.6505 2.0998125 23.5625 2.2578125 C 23.4365 2.4848125 20.470719 7.8245781 20.011719 9.8925781 C 19.817719 10.767578 20.045391 11.662969 20.650391 12.417969 C 21.421391 13.378969 22.736 14 24 14 C 25.264 14 26.578609 13.378969 27.349609 12.417969 C 27.954609 11.662969 28.182281 10.767578 27.988281 9.8925781 C 27.529281 7.8255781 24.5635 2.4848125 24.4375 2.2578125 C 24.3495 2.0998125 24.174 2.0195312 24 2.0195312 z M 21.462891 15.451172 C 21.179891 15.904172 21 16.427 21 17 L 21 21 L 27 21 L 27 17 C 27 16.427 26.820109 15.904172 26.537109 15.451172 C 25.738109 15.801172 24.87 16 24 16 C 23.13 16 22.261891 15.801172 21.462891 15.451172 z M 12.5 23 C 9.468 23 7 25.468 7 28.5 L 7 30 C 7 30.874 7 32.5 11.25 32.5 C 13.859 32.5 16.5 31.47 16.5 29.5 C 16.5 28.947 16.947 28.5 17.5 28.5 C 18.053 28.5 18.5 28.947 18.5 29.5 C 18.5 31.156 21.828 32.5 24 32.5 C 26.666 32.5 29.5 31.448 29.5 29.5 C 29.5 28.947 29.947 28.5 30.5 28.5 C 31.053 28.5 31.5 28.947 31.5 29.5 C 31.5 31.47 34.141 32.5 36.75 32.5 C 41 32.5 41 30.874 41 30 L 41 28.5 C 41 25.468 38.532 23 35.5 23 L 12.5 23 z M 17.613281 32.041016 C 16.427281 33.559016 14.134 34.5 11.25 34.5 C 9.43 34.5 8.028 34.191328 7 33.611328 L 7 41 L 41 41 L 41 33.611328 C 39.972 34.191328 38.57 34.5 36.75 34.5 C 33.927 34.5 31.673797 33.597719 30.466797 32.136719 C 29.198797 33.585719 26.861 34.5 24 34.5 C 22.115 34.5 19.196281 33.677016 17.613281 32.041016 z M 4.5 43 C 3.672 43 3 43.672 3 44.5 C 3 45.328 3.672 46 4.5 46 L 43.5 46 C 44.328 46 45 45.328 45 44.5 C 45 43.672 44.328 43 43.5 43 L 4.5 43 z"/></svg>